<svg width="36" height="35" viewBox="0 0 36 35" fill="none" xmlns="http://www.w3.org/2000/svg">
<path d="M35.7354 9.45765C35.6318 9.31061 35.4945 9.1906 35.3349 9.10771C35.1753 9.02483 34.9982 8.98151 34.8183 8.98139H10.8631L9.04975 2.72817C8.33864 0.265819 6.64888 0 5.95584 0H1.12088C0.501161 0 0 0.501725 0 1.12084C0 1.73995 0.501725 2.24164 1.12084 2.24164H5.95524C6.10818 2.24164 6.57492 2.24164 6.89326 3.3416L13.1312 26.2669C13.2667 26.7506 13.7075 27.0846 14.2103 27.0846H29.4472C29.9201 27.0846 30.3422 26.7883 30.502 26.3431L35.8726 10.4814C35.9961 10.1377 35.9448 9.75507 35.7354 9.45765H35.7354ZM28.6584 24.8436H15.061L11.4931 11.2236H33.2247L28.6584 24.8436ZM26.4354 29.3563C24.8766 29.3563 23.6135 30.6194 23.6135 32.1782C23.6135 33.7369 24.8766 35 26.4354 35C27.9941 35 29.2572 33.7369 29.2572 32.1782C29.2572 30.6194 27.9941 29.3563 26.4354 29.3563ZM16.2767 29.3563C14.7179 29.3563 13.4548 30.6194 13.4548 32.1782C13.4548 33.7369 14.7179 35 16.2767 35C17.8355 35 19.0985 33.7369 19.0985 32.1782C19.0985 30.6194 17.8355 29.3563 16.2767 29.3563Z" fill="white"/>
</svg>
